<?xml version="1.0" encoding="iso-8859-1"?>
<!-- Generator: Adobe Illustrator 16.0.0, SVG Export Plug-In . SVG Version: 6.00 Build 0)  -->
<!DOCTYPE svg PUBLIC "-//W3C//DTD SVG 1.1//EN" "http://www.w3.org/Graphics/SVG/1.1/DTD/svg11.dtd">
<svg version="1.1" id="Layer_1" xmlns="http://www.w3.org/2000/svg" xmlns:xlink="http://www.w3.org/1999/xlink" x="0px" y="0px"
	 width="600px" height="915px" viewBox="0 0 600 915" style="enable-background:new 0 0 600 915;" xml:space="preserve">
<g>
	<path style="fill:none;stroke:#B7B7B7;stroke-width:2;stroke-miterlimit:10;" d="M292.204,130.372l8.123-104.762
		c0,0,8.268-6.37,24.658,0l-10.92,104.642"/>
	<path style="fill:none;stroke:#B7B7B7;stroke-width:2;stroke-miterlimit:10;" d="M302.031,163.882h165.805l-52.629,706.622
		c0,0-40.177,26.385-114.791,26.385c-74.615,0-113.176-26.385-113.176-26.385l-52.628-706.622h165.805"/>
	<path style="fill:#FFFFFF;stroke:#B7B7B7;stroke-width:2;stroke-miterlimit:10;" d="M300.236,130.251
		c19.744,0,31.848,2.121,31.848,2.121l3.184,7.066l21.385,0.707c12.287-3.899,10.295-4.422,17.165-4.422
		c14.756,0,17.953,4.775,17.953,4.775l64.433,3.819l9.838,9.55c9.836,0,12.903,20.505,12.903,20.505s-122.018,8.595-178.708,8.595
		c-56.69,0-178.528-8.595-178.528-8.595s3.066-20.505,12.903-20.505l9.838-9.55l64.433-3.819c0,0,3.197-4.775,17.953-4.775
		s16.256,4.422,16.256,4.422l22.293-0.707l3.185-7.066C268.568,132.372,280.493,130.251,300.236,130.251z"/>
</g>
<polygon style="opacity:0.7;fill:#FFFFFF;stroke:#B7B7B7;stroke-width:2;stroke-miterlimit:10;" points="149.805,367.88 
	460.323,264.756 448.674,421.16 161.76,518.904 "/>
<g>
	<path style="fill:#B7B7B7;" d="M215.26,459.165l-12.096-28.766l-3.997-9.744v43.633l-10.368,3.301V395.66l10.152-3.232
		l11.232,29.365l3.672,9.955v-44.064l10.26-3.266v71.929L215.26,459.165z"/>
	<path style="fill:#B7B7B7;" d="M248.631,449.837c-10.368,3.301-17.172-1.553-17.172-11.598v-40.393
		c0-9.936,6.804-19.23,17.172-22.531s17.172,1.662,17.172,11.597v40.393C265.803,437.35,258.999,446.536,248.631,449.837z
		 M254.247,389.729c0-3.457-2.052-5.18-5.616-4.045c-3.564,1.134-5.616,4.164-5.616,7.621v42.12c0,3.456,2.052,5.179,5.616,4.044
		c3.564-1.135,5.616-4.164,5.616-7.62V389.729z"/>
	<path style="fill:#B7B7B7;" d="M303.925,432.233c-10.368,3.301-17.172-1.553-17.172-11.598v-40.393
		c0-9.936,6.804-19.23,17.172-22.531s17.172,1.662,17.172,11.598v40.393C321.097,419.747,314.293,428.933,303.925,432.233z
		 M309.541,372.125c0-3.457-2.053-5.18-5.616-4.045c-3.564,1.135-5.616,4.164-5.616,7.621v42.12c0,3.456,2.052,5.179,5.616,4.044
		c3.563-1.135,5.616-4.164,5.616-7.62V372.125z"/>
	<path style="fill:#B7B7B7;" d="M354.792,414.744l-12.096-28.765l-3.997-9.744v43.633l-10.368,3.301v-71.929l10.152-3.232
		l11.232,29.364l3.672,9.955v-44.064l10.261-3.266v71.929L354.792,414.744z"/>
	<path style="fill:#B7B7B7;" d="M403.39,399.272l-17.496,5.57v-71.929l17.496-5.57c10.368-3.301,16.417,1.253,16.417,11.945v38.017
		C419.807,388.105,413.758,395.972,403.39,399.272z M408.358,342.825c0-4.536-1.729-6.253-5.725-4.981l-5.292,1.685v51.517
		l5.292-1.685c3.996-1.272,5.725-4.198,5.725-8.626V342.825z"/>
</g>
</svg>
